HIERARCHY
ROOT Hips
{
  OFFSET 5.84602e-005 68.8428 3.50346
  CHANNELS 6 Xposition Yposition Zposition Zrotation Xrotation Yrotation
  JOINT Spine
  {
    OFFSET 0 8.597 -4.6522
    CHANNELS 3 Zrotation Xrotation Yrotation
    JOINT Spine1
    {
      OFFSET 0 7.8454 0.4098
      CHANNELS 3 Zrotation Xrotation Yrotation
      JOINT Spine2
      {
        OFFSET 0 9.7078 -2.1609
        CHANNELS 3 Zrotation Xrotation Yrotation
        JOINT Neck
        {
          OFFSET 0 21.8761 -0.4549
          CHANNELS 3 Zrotation Xrotation Yrotation
          JOINT Head
          {
            OFFSET 0 12.3537 3.3602
            CHANNELS 3 Zrotation Xrotation Yrotation
            End Site
            {
              OFFSET 0.0001 18.9506 0.5657
            }
          }
        }
        JOINT LeftShoulder
        {
          OFFSET 2.2086 21.1115 7.2329
          CHANNELS 3 Zrotation Xrotation Yrotation
          JOINT LeftArm
          {
            OFFSET 13.1193 3.0282 -4.8998
            CHANNELS 3 Zrotation Xrotation Yrotation
            JOINT LeftForeArm
            {
              OFFSET 27.4081 -0.0973053 -0.2375
              CHANNELS 3 Zrotation Xrotation Yrotation
              JOINT LeftHand
              {
                OFFSET 22.8641 0.0662994 -0.1369
                CHANNELS 3 Zrotation Xrotation Yrotation
                JOINT LeftHandIndex1
                {
                  OFFSET 8.8614 0.775009 2.4612
                  CHANNELS 3 Zrotation Xrotation Yrotation
                  JOINT LeftHandIndex2
                  {
                    OFFSET 3.3146 -0.808304 0.5841
                    CHANNELS 3 Zrotation Xrotation Yrotation
                    JOINT LeftHandIndex3
                    {
                      OFFSET 2.2628 -0.552002 0.3989
                      CHANNELS 3 Zrotation Xrotation Yrotation
                      End Site
                      {
                        OFFSET 1.6102 -0.4807 0.2612
                      }
                    }
                  }
                }
                JOINT LeftHandMiddle1
                {
                  OFFSET 8.9937 0.895004 0.2143
                  CHANNELS 3 Zrotation Xrotation Yrotation
                  JOINT LeftHandMiddle2
                  {
                    OFFSET 4.0984 0.0113983 -0.0242
                    CHANNELS 3 Zrotation Xrotation Yrotation
                    JOINT LeftHandMiddle3
                    {
                      OFFSET 2.2716 0.00689697 -0.0138001
                      CHANNELS 3 Zrotation Xrotation Yrotation
                      End Site
                      {
                        OFFSET 2.0404 -0.1441 0.0027
                      }
                    }
                  }
                }
                JOINT LeftHandRing1
                {
                  OFFSET 8.5234 0.597198 -2.0164
                  CHANNELS 3 Zrotation Xrotation Yrotation
                  JOINT LeftHandRing2
                  {
                    OFFSET 3.7188 -0.188293 -0.2328
                    CHANNELS 3 Zrotation Xrotation Yrotation
                    JOINT LeftHandRing3
                    {
                      OFFSET 2.1191 -0.106598 -0.1332
                      CHANNELS 3 Zrotation Xrotation Yrotation
                      End Site
                      {
                        OFFSET 1.8737 -0.2304 -0.0886
                      }
                    }
                  }
                }
                JOINT LeftHandPinky1
                {
                  OFFSET 7.9094 -0.601089 -3.4825
                  CHANNELS 3 Zrotation Xrotation Yrotation
                  JOINT LeftHandPinky2
                  {
                    OFFSET 2.2874 -0.477005 -0.6314
                    CHANNELS 3 Zrotation Xrotation Yrotation
                    JOINT LeftHandPinky3
                    {
                      OFFSET 1.6774 -0.349396 -0.4633
                      CHANNELS 3 Zrotation Xrotation Yrotation
                      End Site
                      {
                        OFFSET 1.4888 -0.4091 -0.3416
                      }
                    }
                  }
                }
                JOINT LeftHandThumb1
                {
                  OFFSET 1.833 -1.3875 1.3896
                  CHANNELS 3 Zrotation Xrotation Yrotation
                  JOINT LeftHandThumb2
                  {
                    OFFSET 3.4129 -1.121 2.5732
                    CHANNELS 3 Zrotation Xrotation Yrotation
                    JOINT LeftHandThumb3
                    {
                      OFFSET 2.2474 -0.804199 1.6192
                      CHANNELS 3 Zrotation Xrotation Yrotation
                      End Site
                      {
                        OFFSET 1.6527 -0.5689 1.1317
                      }
                    }
                  }
                }
              }
            }
          }
        }
        JOINT RightShoulder
        {
          OFFSET -2.2086 21.1115 7.2329
          CHANNELS 3 Zrotation Xrotation Yrotation
          JOINT RightArm
          {
            OFFSET -13.1216 3.0287 -4.9007
            CHANNELS 3 Zrotation Xrotation Yrotation
            JOINT RightForeArm
            {
              OFFSET -27.4081 -0.0973053 -0.2375
              CHANNELS 3 Zrotation Xrotation Yrotation
              JOINT RightHand
              {
                OFFSET -22.8641 0.0664063 -0.1369
                CHANNELS 3 Zrotation Xrotation Yrotation
                JOINT RightHandIndex1
                {
                  OFFSET -8.8614 0.774994 2.4612
                  CHANNELS 3 Zrotation Xrotation Yrotation
                  JOINT RightHandIndex2
                  {
                    OFFSET -3.3146 -0.808304 0.5841
                    CHANNELS 3 Zrotation Xrotation Yrotation
                    JOINT RightHandIndex3
                    {
                      OFFSET -2.2628 -0.552002 0.3989
                      CHANNELS 3 Zrotation Xrotation Yrotation
                      End Site
                      {
                        OFFSET -1.6102 -0.4807 0.2612
                      }
                    }
                  }
                }
                JOINT RightHandMiddle1
                {
                  OFFSET -8.9937 0.894989 0.2143
                  CHANNELS 3 Zrotation Xrotation Yrotation
                  JOINT RightHandMiddle2
                  {
                    OFFSET -4.0984 0.0113983 -0.0242
                    CHANNELS 3 Zrotation Xrotation Yrotation
                    JOINT RightHandMiddle3
                    {
                      OFFSET -2.2716 0.00691223 -0.0138001
                      CHANNELS 3 Zrotation Xrotation Yrotation
                      End Site
                      {
                        OFFSET -2.0404 -0.1441 0.0027
                      }
                    }
                  }
                }
                JOINT RightHandRing1
                {
                  OFFSET -8.5234 0.597198 -2.0164
                  CHANNELS 3 Zrotation Xrotation Yrotation
                  JOINT RightHandRing2
                  {
                    OFFSET -3.7188 -0.188309 -0.2328
                    CHANNELS 3 Zrotation Xrotation Yrotation
                    JOINT RightHandRing3
                    {
                      OFFSET -2.1191 -0.106598 -0.1332
                      CHANNELS 3 Zrotation Xrotation Yrotation
                      End Site
                      {
                        OFFSET -1.8737 -0.2304 -0.0886
                      }
                    }
                  }
                }
                JOINT RightHandPinky1
                {
                  OFFSET -7.9094 -0.601105 -3.4825
                  CHANNELS 3 Zrotation Xrotation Yrotation
                  JOINT RightHandPinky2
                  {
                    OFFSET -2.2874 -0.477005 -0.6314
                    CHANNELS 3 Zrotation Xrotation Yrotation
                    JOINT RightHandPinky3
                    {
                      OFFSET -1.6774 -0.349396 -0.4633
                      CHANNELS 3 Zrotation Xrotation Yrotation
                      End Site
                      {
                        OFFSET -1.4888 -0.4091 -0.3416
                      }
                    }
                  }
                }
                JOINT RightHandThumb1
                {
                  OFFSET -1.833 -1.38751 1.3896
                  CHANNELS 3 Zrotation Xrotation Yrotation
                  JOINT RightHandThumb2
                  {
                    OFFSET -3.41299 -1.12099 2.5732
                    CHANNELS 3 Zrotation Xrotation Yrotation
                    JOINT RightHandThumb3
                    {
                      OFFSET -2.24741 -0.804108 1.6192
                      CHANNELS 3 Zrotation Xrotation Yrotation
                      End Site
                      {
                        OFFSET -1.6527 -0.5689 1.1317
                      }
                    }
                  }
                }
              }
            }
          }
        }
      }
    }
  }
  JOINT RightUpLeg
  {
    OFFSET -9.1966 3.8861 -0.7581
    CHANNELS 3 Zrotation Xrotation Yrotation
    JOINT RightLeg
    {
      OFFSET -0.7359 -41.0265 0
      CHANNELS 3 Zrotation Xrotation Yrotation
      JOINT RightFoot
      {
        OFFSET 0 -40.2855 0
        CHANNELS 3 Zrotation Xrotation Yrotation
        JOINT RightToeBase
        {
          OFFSET 0 -5.6122 11.7359
          CHANNELS 3 Zrotation Xrotation Yrotation
          End Site
          {
            OFFSET 0 0 7.8731
          }
        }
      }
    }
  }
  JOINT LeftUpLeg
  {
    OFFSET 9.1965 3.8864 -0.7581
    CHANNELS 3 Zrotation Xrotation Yrotation
    JOINT LeftLeg
    {
      OFFSET 0.7359 -41.0268 0
      CHANNELS 3 Zrotation Xrotation Yrotation
      JOINT LeftFoot
      {
        OFFSET 0 -40.2855 0
        CHANNELS 3 Zrotation Xrotation Yrotation
        JOINT LeftToeBase
        {
          OFFSET 0 -5.6122 11.7359
          CHANNELS 3 Zrotation Xrotation Yrotation
          End Site
          {
            OFFSET 0 0 7.8731
          }
        }
      }
    }
  }
}
MOTION
Frames:	4
Frame Time:	0.0333333
39.7541 39.6496 18.5602 179.997 58.9947 3.2456e-011 -0.0295674 9.08997 -0.0834105 -0.0464275 18.18 -0.165184 -0.0464276 18.18 -0.165184 2.88739 -0.00057964 -0.562286 -2.80573e-007 0.0604829 -3.19905e-007 -12.1076 -4.17877 -4.06495 -49.7543 54.9873 2.99324 12.438 34.0288 -18.6324 2.89044 -7.67677 0.216304 -1.25516e-007 1.7252e-007 -5.30504e-009 -1.49688e-008 1.03459e-007 1.50236e-006 -4.41391e-032 -7.95139e-016 -3.18055e-015 -1.25516e-007 1.7252e-007 -5.30504e-009 -0.0146012 -8.82585e-005 4.65045e-006 -1.6184e-008 1.0326e-007 1.50237e-006 -1.25516e-007 1.7252e-007 -5.30504e-009 -0.0187536 -0.00117571 5.60715e-005 -3.97569e-016 1.39149e-015 -0 -1.25516e-007 1.7252e-007 -5.30504e-009 -0.0122501 -0.00324236 0.000675087 7.95139e-015 2.56432e-014 -3.18055e-015 -1.25516e-007 1.7252e-007 -5.30504e-009 -1.49688e-008 1.03459e-007 1.50236e-006 -4.41391e-032 -7.95139e-016 -3.18055e-015 6.25462 -5.42555 3.24958 57.8827 54.899 -2.9997 -13.3653 33.7325 23.4114 -2.19755 -5.52694 -6.21048 -0 -7.95139e-016 -0 -0 -3.97569e-016 -0 2.20695e-032 -3.97569e-016 3.18055e-015 -0 -7.95139e-016 -0 0.0149372 -9.07825e-005 5.26927e-006 1.41245e-030 -2.54444e-014 3.18055e-015 -0 -7.95139e-016 -0 0.0189837 -0.00119019 -6.3837e-005 7.95139e-016 -7.95139e-016 -0 -0 -7.95139e-016 -0 0.0122815 -0.00325141 -0.000677288 -0 -1.19271e-015 -0 -0 -7.95139e-016 -0 -0 -3.97569e-016 -0 2.20695e-032 -3.97569e-016 3.18055e-015 -50.7298 -73.7104 -80.8581 -1.56731 34.7793 41.8154 -23.8327 -2.13391 -6.67129 -4.49683e-007 4.01585e-008 3.62389e-007 53.9193 -71.938 83.8311 1.56878 34.6818 -41.8448 21.3007 -2.28759 5.4765 6.01324e-015 7.95139e-016 1.59028e-015 
39.7533 39.6496 18.5604 179.997 58.9947 3.2456e-011 -0.0293842 9.03477 -0.0834892 -0.0461185 18.0696 -0.165366 -0.0461185 18.0696 -0.165366 3.03436 0.350761 -0.59987 -1.24416e-006 0.0601783 -7.80433e-007 -12.3879 -4.01847 -3.9584 -49.5478 54.9901 3.00569 12.438 34.0288 -18.6324 2.8253 -7.55272 0.133066 -2.20695e-032 3.97569e-016 3.18055e-015 3.97569e-016 3.97569e-016 -0 3.97569e-016 7.95139e-016 -0 -2.20695e-032 3.97569e-016 3.18055e-015 -0.0145625 -8.82398e-005 5.26356e-006 7.95139e-016 0 -6.36111e-015 -2.20695e-032 3.97569e-016 3.18055e-015 -0.0187658 -0.00117652 5.68039e-005 -1.19271e-015 -2.68359e-014 3.18055e-015 -2.20695e-032 3.97569e-016 3.18055e-015 -0.0122706 -0.00324808 0.000674186 8.34896e-015 2.44505e-014 -3.18055e-015 -2.20695e-032 3.97569e-016 3.18055e-015 3.97569e-016 3.97569e-016 -0 3.97569e-016 7.95139e-016 -0 6.50242 -5.23603 3.15115 57.6988 54.8997 -3.00437 -13.3653 33.7325 23.4114 -2.14314 -5.40529 -6.13425 3.97569e-016 -1.39149e-015 3.18055e-015 3.97569e-016 -1.39149e-015 -0 -5.51738e-032 -9.93923e-016 -3.18055e-015 3.97569e-016 -1.39149e-015 3.18055e-015 0.0149785 -9.10899e-005 4.93386e-006 -2.28854e-008 -9.7917e-008 1.48871e-006 3.97569e-016 -1.39149e-015 3.18055e-015 0.0190181 -0.0011919 -6.68913e-005 -3.97569e-016 3.97569e-016 3.18055e-015 3.97569e-016 -1.39149e-015 3.18055e-015 0.0122341 -0.0032382 -0.000690948 -6.75868e-015 2.60408e-014 6.36111e-015 3.97569e-016 -1.39149e-015 3.18055e-015 3.97569e-016 -1.39149e-015 -0 -5.51738e-032 -9.93923e-016 -3.18055e-015 -50.9414 -73.6039 -81.0572 -1.56718 34.7744 41.8161 -23.701 -2.14383 -6.60913 1.60199e-008 6.62714e-008 -4.21251e-007 53.94 -71.9246 83.8503 1.56879 34.6821 -41.8446 21.3014 -2.28763 5.47653 -2.3302e-006 -2.50694e-007 -4.96571e-007 
39.7525 39.6495 18.5606 179.997 58.9947 3.2456e-011 -0.0292048 8.97957 -0.0835645 -0.0458181 17.9592 -0.165541 -0.0458181 17.9592 -0.165541 3.18166 0.702117 -0.638383 6.60662e-007 0.0598792 1.83384e-007 -12.6683 -3.85861 -3.85108 -49.3412 54.9928 3.01814 12.438 34.0288 -18.6324 2.76037 -7.42858 0.0499047 7.72434e-032 1.39149e-015 -3.18055e-015 6.62086e-032 1.19271e-015 -3.18055e-015 3.97569e-016 1.19271e-015 -6.36111e-015 7.72434e-032 1.39149e-015 -3.18055e-015 -0.0146627 -8.91345e-005 -5.43185e-006 3.97569e-016 0 -3.18055e-015 7.72434e-032 1.39149e-015 -3.18055e-015 -0.0187271 -0.00117398 6.68764e-005 3.97569e-016 -1.78906e-015 -3.18055e-015 7.72434e-032 1.39149e-015 -3.18055e-015 -0.0122722 -0.00324749 0.000678548 -1.60495e-008 1.01764e-007 1.48355e-006 7.72434e-032 1.39149e-015 -3.18055e-015 6.62086e-032 1.19271e-015 -3.18055e-015 3.97569e-016 1.19271e-015 -6.36111e-015 6.75047 -5.04694 3.05192 57.5149 54.9005 -3.00903 -13.3653 33.7325 23.4114 -2.0889 -5.28357 -6.05814 -3.57812e-015 -3.97569e-016 -1.90833e-014 -3.57812e-015 -7.95139e-016 -1.90833e-014 -3.18055e-015 -5.96354e-016 -1.90833e-014 -3.57812e-015 -3.97569e-016 -1.90833e-014 0.0149957 -9.11733e-005 4.71814e-006 0 9.93923e-016 -0 -3.57812e-015 -3.97569e-016 -1.90833e-014 0.0189949 -0.0011913 -5.91732e-005 -1.19271e-015 -3.97569e-016 -3.18055e-015 -3.57812e-015 -3.97569e-016 -1.90833e-014 0.0122786 -0.00325066 -0.000678018 1.59028e-015 1.98785e-016 3.18055e-015 -3.57812e-015 -3.97569e-016 -1.90833e-014 -3.57812e-015 -7.95139e-016 -1.90833e-014 -3.18055e-015 -5.96354e-016 -1.90833e-014 -51.1507 -73.4972 -81.2539 -1.56703 34.7696 41.8168 -23.5693 -2.15369 -6.54696 -1.68503e-006 4.58997e-008 -6.47748e-008 53.9605 -71.9112 83.8694 1.5688 34.6822 -41.8445 21.3021 -2.28758 5.47654 -1.8889e-008 6.37958e-008 4.21488e-007 
39.7517 39.6495 18.5608 179.997 58.9947 3.2456e-011 -0.0290216 8.92448 -0.0836421 -0.0455101 17.8488 -0.16572 -0.0455101 17.8488 -0.16572 3.32919 1.05382 -0.677795 -3.6484e-007 0.0595652 -7.63521e-007 -12.949 -3.69938 -3.74302 -49.1346 54.9956 3.03057 12.438 34.0288 -18.6324 2.69564 -7.30435 -0.0330551 4.61156e-008 2.98175e-007 -8.84523e-009 -2.74253e-008 4.43156e-007 6.97732e-006 4.61156e-008 2.98175e-007 -8.84521e-009 4.61156e-008 2.98175e-007 -8.84523e-009 -0.0146017 -8.84292e-005 9.98321e-006 2.97718e-008 3.99678e-007 1.46517e-006 4.61156e-008 2.98175e-007 -8.84523e-009 -0.0187474 -0.00117471 7.67961e-005 2.94404e-008 3.99534e-007 1.46519e-006 4.61156e-008 2.98175e-007 -8.84523e-009 -0.0122596 -0.00324511 0.000684245 4.61173e-008 2.98176e-007 -8.81461e-009 4.61156e-008 2.98175e-007 -8.84523e-009 -2.74253e-008 4.43156e-007 6.97732e-006 4.61156e-008 2.98175e-007 -8.84521e-009 6.99877 -4.85832 2.95191 57.331 54.9013 -3.01371 -13.3653 33.7325 23.4114 -2.03483 -5.16178 -5.98215 3.97569e-016 -2.42517e-014 -3.18055e-015 -3.97569e-016 -2.48481e-014 -0 -7.95139e-016 -2.46493e-014 3.18055e-015 3.97569e-016 -2.42517e-014 -3.18055e-015 0.0149895 -9.10602e-005 -4.92787e-006 -3.31043e-032 -5.96354e-016 -3.18055e-015 3.97569e-016 -2.42517e-014 -3.18055e-015 0.0189856 -0.00119044 -5.93207e-005 0 1.98785e-016 -0 3.97569e-016 -2.42517e-014 -3.18055e-015 0.0122563 -0.00324451 -0.000678072 -3.97569e-016 -2.88238e-014 -3.18055e-015 3.97569e-016 -2.42517e-014 -3.18055e-015 -3.97569e-016 -2.48481e-014 -0 -7.95139e-016 -2.46493e-014 3.18055e-015 -51.3576 -73.3904 -81.4484 -1.56687 34.765 41.8174 -23.4377 -2.16342 -6.48477 4.41391e-032 1.59028e-015 -1.59028e-015 53.9813 -71.8978 83.8887 1.5688 34.6825 -41.8443 21.3028 -2.28766 5.47657 -1.69829e-006 3.71998e-007 -1.39467e-007 
